<svg width="46" height="20" viewBox="0 0 46 20" fill="none" xmlns="http://www.w3.org/2000/svg">
<path d="M2.44095 16.7202C1.53643 16.7202 0.803162 17.4498 0.803162 18.3498C0.803162 19.2499 1.53643 19.9795 2.44095 19.9795L43.9405 19.9795C44.8451 19.9795 45.5783 19.2499 45.5783 18.3498C45.5783 17.4498 44.8451 16.7202 43.9405 16.7202L2.44095 16.7202Z" fill="white"/>
<path d="M2.44096 8.61178C1.53643 8.61178 0.803162 9.34139 0.803162 10.2414C0.803162 11.1415 1.53643 11.8711 2.44096 11.8711L43.9405 11.8711C44.8451 11.8711 45.5783 11.1415 45.5783 10.2414C45.5783 9.34139 44.8451 8.61178 43.9405 8.61178L2.44096 8.61178Z" fill="white"/>
<path d="M2.44095 0.503381C1.53643 0.503381 0.803162 1.233 0.803162 2.13303C0.803162 3.03306 1.53643 3.7627 2.44095 3.7627L43.9405 3.7627C44.8451 3.7627 45.5783 3.03306 45.5783 2.13303C45.5783 1.233 44.8451 0.503381 43.9405 0.503381L2.44095 0.503381Z" fill="white"/>
</svg>
