<svg width="37" height="37" viewBox="0 0 37 37" fill="none" xmlns="http://www.w3.org/2000/svg">
<g clip-path="url(#clip0_149_201)">
<path d="M36.4653 33.8591C37.1781 34.5719 37.1781 35.7526 36.4653 36.4654C35.7525 37.1782 34.5719 37.1782 33.859 36.4654L18.511 21.1174L3.16306 36.4654C2.80665 36.8218 2.31658 37 1.84879 37C1.40328 37 0.913213 36.8218 0.556801 36.4654C-0.200574 35.7526 -0.200574 34.5719 0.556801 33.8591L15.9048 18.5111L0.579077 3.18543C0.200389 2.82902 -9.2593e-05 2.33895 -9.2593e-05 1.87116C-9.2593e-05 1.40337 0.178113 0.891029 0.579077 0.534618C1.2919 -0.178206 2.45024 -0.178206 3.18534 0.534618L18.5333 15.8826L33.859 0.534618C34.5719 -0.178206 35.7525 -0.178206 36.4653 0.534618C37.1781 1.24744 37.1781 2.45033 36.4653 3.16315L21.1173 18.5111L36.4653 33.8591Z" fill="white"/>
</g>
<defs>
<clipPath id="clip0_149_201">
<rect width="37" height="37" fill="white"/>
</clipPath>
</defs>
</svg>
