<?xml version="1.0" encoding="UTF-8"?>
<svg id="Calque_1" data-name="Calque 1" xmlns="http://www.w3.org/2000/svg" viewBox="0 0 124.13 29.48">
  <defs>
    <style>
      .cls-1 {
        fill: #fff;
      }

      .cls-2 {
        fill: #eca74b;
      }
    </style>
  </defs>
  <rect class="cls-2" x="0" y="0" width="123.91" height="29.48" rx="14.74" ry="14.74"/>
  <g>
    <g>
      <path class="cls-1" d="m58.87,9.78v8.42h-2.2v-2.33l.05-1.86-2.11,2.15h-.16l-2.1-2.15.04,1.86v2.33h-2.19v-8.42h.89l3.45,3.63,3.44-3.63h.89Z"/>
      <path class="cls-1" d="m60.23,14c0-2.54,1.82-4.33,4.4-4.33s4.4,1.79,4.4,4.33-1.82,4.33-4.4,4.33-4.4-1.79-4.4-4.33Zm6.56,0c0-1.34-.86-2.24-2.16-2.24s-2.16.89-2.16,2.24.86,2.24,2.16,2.24,2.16-.9,2.16-2.24Z"/>
      <path class="cls-1" d="m77.65,9.8v8.42h-.89l-4.23-4.28.02,1.51v2.75h-2.16v-8.43h.89l4.25,4.15-.04-1.49v-2.63h2.16Z"/>
      <path class="cls-1" d="m81.58,14c0-2.54,1.75-4.33,4.22-4.33,2.22,0,3.65,1.27,4.09,3.18h-2.18c-.33-.68-.98-1.09-1.82-1.09-1.24,0-2.06.89-2.06,2.24s.83,2.24,2.06,2.24c.91,0,1.59-.48,1.89-1.25h2.16c-.38,2-1.85,3.33-4.14,3.33-2.47,0-4.22-1.79-4.22-4.33Z"/>
      <path class="cls-1" d="m98.47,9.8v.13l-3.68,8.35h-.96l-3.72-8.35v-.13h2.35l1.07,2.49.78,2.27.74-2.27,1.06-2.49h2.36Z"/>
    </g>
    <g>
      <polygon class="cls-1" points="40.05 12.69 32.74 19.99 25.44 12.69 30.16 12.69 30.16 6.4 35.33 6.4 35.33 12.69 40.05 12.69"/>
      <rect class="cls-1" x="25.44" y="21.65" width="14.61" height="1.43"/>
    </g>
  </g>
</svg>