<svg width="46" height="48" viewBox="0 0 46 48" fill="none" xmlns="http://www.w3.org/2000/svg">
<path d="M44.9285 21.324L24.2183 0.549237C23.9013 0.231256 23.4787 0.0722656 23.056 0.0722656C22.6334 0.0722656 22.2371 0.231256 21.9201 0.549237L1.18356 21.3505C0.655234 21.8805 0.496736 22.7019 0.86656 23.3379C1.18355 23.9208 1.73829 24.1858 2.29303 24.1858C2.71568 24.1858 3.13834 24.0268 3.45533 23.7089L6.75733 20.3966V46.312C6.75733 47.213 7.49698 47.9549 8.39513 47.9549H17.2973C18.1426 47.9549 18.8559 47.266 18.8559 46.3915V29.035H27.3618V46.3915C27.3618 47.2395 28.0486 47.9549 28.9204 47.9549H37.8226C38.7207 47.9549 39.4604 47.213 39.4604 46.312V20.3966L42.7624 23.7089C43.0794 24.0268 43.502 24.1858 43.9247 24.1858C44.3738 24.1858 44.8228 24.0003 45.1398 23.6294C45.721 22.9669 45.6153 21.96 45.0077 21.3505L44.9285 21.324ZM36.132 44.6691H30.5846V27.3921C30.5846 26.4912 29.8449 25.7492 28.9468 25.7492H17.1653C16.9539 25.7492 16.7426 25.7757 16.5577 25.8817C16.4784 25.9082 16.3992 25.9612 16.3464 25.9877C16.2143 26.0672 16.1086 26.1732 16.0029 26.2792C15.7388 26.5707 15.5803 26.9682 15.5803 27.3921V44.6691H10.0065V17.1108L23.0824 4.02053L36.132 17.1108V44.6691Z" fill="white"/>
</svg>
