<?xml version="1.0" encoding="UTF-8"?>
<svg id="Calque_1" data-name="Calque 1" xmlns="http://www.w3.org/2000/svg" viewBox="0 0 123.91 29.48">
  <defs>
    <style>
      .cls-1 {
        fill: #fff;
      }

      .cls-2 {
        fill: #eca74b;
      }
    </style>
  </defs>
  <rect class="cls-2" x="0" y="0" width="123.91" height="29.48" rx="14.74" ry="14.74"/>
  <g>
    <path class="cls-1" d="m38.47,9.8v.13l-3.68,8.35h-.96l-3.72-8.35v-.13h2.35l1.07,2.49.78,2.27.74-2.27,1.06-2.49h2.36Z"/>
    <path class="cls-1" d="m38.66,14c0-2.54,1.82-4.33,4.4-4.33s4.4,1.79,4.4,4.33-1.82,4.33-4.4,4.33-4.4-1.79-4.4-4.33Zm6.56,0c0-1.34-.86-2.24-2.16-2.24s-2.16.89-2.16,2.24.86,2.24,2.16,2.24,2.16-.9,2.16-2.24Z"/>
    <path class="cls-1" d="m48.83,9.8h2.2v8.4h-2.2v-8.4Z"/>
    <path class="cls-1" d="m60.07,18.14v.06h-2.46l-1.42-2.59h-1.17v2.59h-2.2v-8.4h3.57c1.88,0,3.2,1.19,3.2,2.96,0,1.02-.52,1.88-1.37,2.38l1.83,3Zm-5.05-4.39h1.27c.68,0,1.09-.38,1.09-1.03s-.41-1.02-1.09-1.02h-1.27v2.05Z"/>
    <path class="cls-1" d="m70.95,12.83c0,1.83-1.27,3.05-3.14,3.05h-1.49v2.31h-2.2v-8.4h3.68c1.91,0,3.14,1.21,3.14,3.03Zm-2.23,0c0-.72-.42-1.13-1.13-1.13h-1.27v2.28h1.27c.71,0,1.13-.43,1.13-1.15Z"/>
    <path class="cls-1" d="m77.35,16.23v1.97h-5.23v-8.4h2.2v6.43h3.03Z"/>
    <path class="cls-1" d="m78.25,14.99v-5.19h2.2v5.18c0,.83.46,1.28,1.29,1.28s1.3-.46,1.3-1.28v-5.18h2.19v5.19c0,1.99-1.36,3.33-3.49,3.33s-3.49-1.34-3.49-3.33Z"/>
    <path class="cls-1" d="m86.54,15.5h2.15c0,.58.46.91,1.29.91.78,0,1.24-.28,1.24-.74s-.52-.64-1.5-.74c-2.29-.25-3.09-1.28-3.09-2.7,0-1.51,1.33-2.55,3.29-2.55s3.29,1.1,3.29,2.75h-2.11c0-.53-.43-.84-1.15-.84s-1.13.28-1.13.72c0,.42.31.64,1.28.73,2.43.24,3.35,1.2,3.35,2.7s-1.39,2.6-3.43,2.6c-2.17,0-3.47-1.06-3.47-2.83Z"/>
  </g>
</svg>